<?xml version="1.0" encoding="utf-8"?>
<!-- Generator: Adobe Illustrator 16.0.0, SVG Export Plug-In . SVG Version: 6.00 Build 0)  -->
<!DOCTYPE svg PUBLIC "-//W3C//DTD SVG 1.1//EN" "http://www.w3.org/Graphics/SVG/1.1/DTD/svg11.dtd">
<svg version="1.1" id="Layer_1" xmlns="http://www.w3.org/2000/svg" xmlns:xlink="http://www.w3.org/1999/xlink" x="0px" y="0px"
	 width="612px" height="792px" viewBox="0 0 612 792" enable-background="new 0 0 612 792" xml:space="preserve">
<polygon fill="#006300" points="268.984,555.17 424.451,555.17 414.58,588.484 275.154,592.185 "/>
<path fill="#006300" d="M293.661,631.67l16.04,45.653l40.718,16.04c0,0,23.443-14.807,28.379-18.508
	c4.936-3.702,14.807-35.782,14.807-35.782l-46.888-11.104L293.661,631.67z"/>
<polygon fill="#006300" points="96.241,209.685 70.33,246.702 96.241,280.016 132.025,250.403 "/>
<polygon fill="#006300" points="155.468,108.509 129.557,145.524 155.468,178.839 191.25,149.226 "/>
<path fill="#525763" d="M209.758,211.783c-18.632,7.033-32.081,24.925-32.081,46.023c0,8.144,2.222,15.67,5.676,22.457
	c-14.806,5.676-25.417,19.988-25.417,36.769c0,16.781,10.611,31.094,25.417,36.77c-3.454,6.786-5.676,14.313-5.676,22.457
	c0,21.099,13.326,38.99,32.081,46.023c-1.48,4.195-2.468,8.514-2.468,13.202c0,21.716,17.768,39.483,39.484,39.483
	c4.935,0,9.624-0.986,13.942-2.714c6.416,13.202,19.865,22.456,35.412,22.456c21.716,0,39.483-17.768,39.483-39.483V178.839
	c0-21.716-17.768-39.483-39.483-39.483c-15.67,0-28.996,9.254-35.412,22.456c-4.318-1.728-9.008-2.715-13.942-2.715
	c-21.717,0-39.484,17.769-39.484,39.484C207.29,203.269,208.278,207.588,209.758,211.783z M246.775,178.839
	c10.857,0,19.741,8.884,19.741,19.742h19.742c0-9.501-3.455-18.138-9.131-24.925c2.345-8.39,9.871-14.56,19.002-14.56
	c10.857,0,19.741,8.884,19.741,19.742v276.388c0,10.857-8.884,19.741-19.741,19.741c-9.131,0-16.657-6.169-19.002-14.56
	c5.553-6.786,9.131-15.423,9.131-24.924h-19.742c0,10.858-8.884,19.742-19.741,19.742c-10.858,0-19.742-8.884-19.742-19.742
	s8.884-19.742,19.742-19.742V396c-9.625,0-18.262,3.578-25.172,9.378c-13.695-2.592-24.184-14.56-24.184-29.119
	c0-16.287,13.326-29.613,29.613-29.613s29.612,13.326,29.612,29.613h19.742c0-27.269-22.086-49.355-49.354-49.355
	c-11.105,0-21.346,3.825-29.613,10.118v-0.247c-10.857,0-19.742-8.884-19.742-19.742c0-10.857,8.885-19.741,19.742-19.741v-0.247
	c8.268,6.293,18.508,10.117,29.613,10.117c27.269,0,49.354-22.086,49.354-49.354h-19.742c0,16.287-13.325,29.613-29.612,29.613
	s-29.613-13.326-29.613-29.613c0-14.437,10.488-26.528,24.184-29.119c6.91,5.676,15.547,9.377,25.172,9.377v-19.741
	c-10.858,0-19.742-8.884-19.742-19.742S235.916,178.839,246.775,178.839z"/>
<path fill="#525763" d="M444.194,159.096c-4.936,0-9.624,0.987-13.943,2.715c-6.416-13.202-19.741-22.456-35.412-22.456
	c-21.716,0-39.483,17.768-39.483,39.483v276.388c0,21.716,17.768,39.483,39.483,39.483c15.671,0,28.996-9.254,35.412-22.456
	c4.319,1.604,9.008,2.714,13.943,2.714c21.716,0,39.483-17.768,39.483-39.483c0-4.688-0.987-9.007-2.468-13.202
	c18.632-7.033,32.081-24.925,32.081-46.023c0-8.144-2.098-15.671-5.676-22.457c14.807-5.676,25.418-19.988,25.418-36.77
	c0-16.78-10.611-31.093-25.418-36.77c3.454-6.786,5.676-14.313,5.676-22.456c0-21.099-13.326-38.99-32.081-46.023
	c1.48-4.195,2.468-8.514,2.468-13.202C483.677,176.865,465.909,159.096,444.194,159.096z M493.548,257.806
	c0,16.287-13.326,29.613-29.613,29.613s-29.612-13.326-29.612-29.613H414.58c0,27.269,22.086,49.354,49.354,49.354
	c11.105,0,21.347-3.824,29.613-10.117v0.247c10.858,0,19.742,8.884,19.742,19.741c0,10.858-8.884,19.742-19.742,19.742v0.247
	c-8.267-6.293-18.508-10.118-29.613-10.118c-27.269,0-49.354,22.087-49.354,49.355h19.742c0-16.287,13.325-29.613,29.612-29.613
	s29.613,13.326,29.613,29.613c0,14.436-10.488,26.527-24.184,29.119c-6.91-5.676-15.547-9.378-25.171-9.378v19.742
	c10.857,0,19.741,8.884,19.741,19.742s-8.884,19.742-19.741,19.742c-10.858,0-19.742-8.884-19.742-19.742h-19.742
	c0,9.501,3.455,18.138,9.131,24.924c-2.345,8.391-9.871,14.56-19.002,14.56c-10.857,0-19.741-8.884-19.741-19.741V178.839
	c0-10.858,8.884-19.742,19.741-19.742c9.131,0,16.657,6.17,19.002,14.56c-5.553,6.787-9.131,15.424-9.131,24.925h19.742
	c0-10.858,8.884-19.742,19.742-19.742c10.857,0,19.741,8.884,19.741,19.742s-8.884,19.742-19.741,19.742v19.741
	c9.624,0,18.261-3.578,25.171-9.377C483.06,231.278,493.548,243.37,493.548,257.806z"/>
<path fill="#5D5D5D" d="M500.951,151.57c-46.146-43.309-106.606-65.148-169.904-61.076l1.234,19.741
	c57.868-3.578,113.022,16.164,155.221,55.771s65.396,93.28,65.396,151.149c0,69.713-34.672,134.245-92.911,172.865
	c-20.111,13.326-35.288,32.327-44.543,54.167H275.277c-9.501-22.086-24.678-41.211-44.789-54.66
	c-59.967-40.102-94.392-106.978-92.171-179.035l-19.741-0.617c-2.468,78.845,35.288,152.137,100.931,196.063
	c14.436,9.747,26.034,22.95,34.178,38.25h-26.651v19.742h34.425c1.975,6.416,3.455,12.955,4.195,19.741h-18.878v19.742h19.741
	v29.613c0,5.429,4.442,9.871,9.871,9.871h9.871c0,32.697,26.528,59.226,59.226,59.226s59.226-26.528,59.226-59.226h9.871
	c5.429,0,9.871-4.442,9.871-9.871v-29.613h19.742v-19.742h-19.002c0.74-6.786,2.098-13.325,3.948-19.741h34.795v-19.742h-27.021
	c7.896-15.177,19.495-28.132,33.932-37.757c63.668-42.321,101.671-113.146,101.671-189.399
	C572.516,254.598,546.358,194.262,500.951,151.57z M345.484,682.259c-21.716,0-39.483-17.768-39.483-39.484h78.967
	C384.967,664.491,367.323,682.259,345.484,682.259z M404.709,623.033H286.258v-19.742h118.451V623.033z M405.449,583.549H285.518
	c-0.617-6.663-1.728-13.326-3.331-19.742h126.348C406.93,570.222,405.944,576.885,405.449,583.549z"/>
<path fill="#525763" d="M108.58,159.096c21.717,0,39.484,17.769,39.484,39.484c0,5.429,4.441,9.871,9.871,9.871
	c5.429,0,9.871-4.442,9.871-9.871c0-21.716,17.768-39.484,39.483-39.484c5.429,0,9.871-4.441,9.871-9.87
	c0-5.43-4.442-9.871-9.871-9.871c-21.716,0-39.483-17.769-39.483-39.484c0-5.429-4.442-9.871-9.871-9.871
	c-5.43,0-9.871,4.442-9.871,9.871c0,21.716-17.768,39.484-39.484,39.484c-5.429,0-9.871,4.441-9.871,9.871
	C98.709,154.655,103.152,159.096,108.58,159.096z M157.936,132.568c4.441,6.54,10.117,12.216,16.657,16.658
	c-6.54,4.441-12.216,10.117-16.657,16.657c-4.442-6.54-10.118-12.216-16.657-16.657
	C147.941,144.907,153.616,139.231,157.936,132.568z"/>
<path fill="#525763" d="M148.065,257.806c5.429,0,9.871-4.441,9.871-9.871c0-5.429-4.442-9.871-9.871-9.871
	c-21.717,0-39.484-17.768-39.484-39.483c0-5.429-4.441-9.871-9.871-9.871c-5.429,0-9.87,4.442-9.87,9.871
	c0,21.716-17.769,39.483-39.484,39.483c-5.429,0-9.871,4.442-9.871,9.871c0,5.43,4.442,9.871,9.871,9.871
	c21.716,0,39.484,17.768,39.484,39.484c0,5.429,4.441,9.87,9.87,9.87c5.43,0,9.871-4.441,9.871-9.87
	C108.58,275.574,126.348,257.806,148.065,257.806z M98.709,264.593c-4.441-6.539-10.117-12.215-16.657-16.657
	c6.54-4.441,12.216-10.117,16.657-16.657c4.442,6.54,10.118,12.216,16.657,16.657C108.827,252.378,103.152,258.053,98.709,264.593z"
	/>
</svg>
